<?xml version="1.0" encoding="utf-8"?>
<!-- Generator: Adobe Illustrator 16.0.0, SVG Export Plug-In . SVG Version: 6.00 Build 0)  -->
<svg version="1.1" id="Capa_1" xmlns="http://www.w3.org/2000/svg" xmlns:xlink="http://www.w3.org/1999/xlink" x="0px" y="0px"
	 width="396.283px" height="318.812px" viewBox="0 0 396.283 318.812" enable-background="new 0 0 396.283 318.812"
	 xml:space="preserve">
<g id="g1_5_">
	<path fill="#9ACAE3" d="M168.253,193.11c-0.08,0.378-4.245-1.682-6.354-2.244c-55.5-14.832-23.022,35.988-23.022,35.988
		s47.356,85.854,63.298,32.93c0,0,9.945-36.3-16.762-57.587c0,0,0.415-25.782,38.393-48.567l0.274,0.885
		c7.288,22.947,10.979,49.844,8.988,81.277c-10.498,165.76-106.757,32.086-106.757,32.086l-47.904-75.195L19.21,99.76
		C-51.587-11.369,96.086,30.456,96.086,30.456s63.744,18.028,104.465,75.873C200.551,106.328,179.552,139.826,168.253,193.11z"/>
</g>
<g id="g2_5_">
	<path fill="#EE9999" d="M230.699,258.409l2.065-18.219c8.274-3.557,18.277-10.041,28.969-20.49c44-43,13.881-96.173-37.893-65.92
		c-51.773,30.254-38.994,71.932-34.44,76.967c2.058,2.273,6.486,7.947,14.554,11.051c0,0,1.119,13.667-1.951,18.548
		c-0.072,0.115-0.03,0.054-0.166,0.034c-5.469-0.738-11.363-1.6-16.696-3.984c0,0-54.006-21.738,21.46-163.799
		c75.466-142.063,173.457-80.002,178.765-73.855c5.308,6.146,32.152,22.502-25.073,118.897c0,0-63.061,100.055-128.527,120.365
		c-0.288,0.088-0.576,0.176-0.864,0.262l0.288-0.086"/>
</g>
</svg>
